<?xml version="1.0" standalone="no"?>
<!DOCTYPE svg PUBLIC "-//W3C//DTD SVG 20010904//EN"
 "http://www.w3.org/TR/2001/REC-SVG-20010904/DTD/svg10.dtd">
<svg version="1.0" xmlns="http://www.w3.org/2000/svg"
 width="640.000000pt" height="400.000000pt" viewBox="0 0 640.000000 400.000000"
 preserveAspectRatio="xMidYMid meet">

<g transform="translate(0.000000,400.000000) scale(0.100000,-0.100000)"
fill="#000000" stroke="none">
<path d="M2537 2372 c-19 -21 -68 -220 -126 -510 -62 -307 -64 -385 -12 -338
23 21 50 114 101 345 22 101 41 186 43 187 2 2 17 -28 33 -68 39 -95 50 -101
121 -64 59 32 117 97 218 245 28 41 51 67 53 58 3 -15 -6 -74 -62 -401 -20
-115 -34 -217 -31 -227 7 -20 47 -35 64 -24 6 3 11 27 11 53 0 54 23 195 74
465 20 103 36 205 36 226 0 88 -65 75 -138 -28 -125 -178 -233 -311 -252 -311
-21 0 -54 144 -66 280 -10 127 -28 156 -67 112z"/>
<path d="M3532 2370 c-74 -27 -185 -103 -221 -152 -39 -53 -65 -122 -102 -272
-36 -151 -37 -203 -3 -265 37 -68 67 -86 139 -86 49 1 72 7 125 35 96 51 260
220 260 268 0 25 -23 10 -98 -61 -205 -194 -341 -218 -382 -66 -12 43 5 139
46 270 44 138 110 210 242 259 87 33 123 36 146 11 33 -37 62 -20 45 26 -19
52 -104 66 -197 33z"/>
<path d="M2100 2339 c-105 -30 -150 -50 -150 -65 0 -21 43 -27 107 -16 32 5
60 8 62 6 2 -2 -8 -63 -22 -136 -15 -73 -38 -203 -52 -288 -15 -85 -32 -158
-38 -162 -21 -14 -110 -38 -138 -38 -36 0 -56 -32 -34 -54 30 -30 81 -30 163
-1 152 54 205 93 167 122 -12 8 -25 9 -42 2 l-26 -10 7 63 c4 35 23 147 42
250 54 293 42 261 101 274 28 6 56 14 62 18 16 11 13 43 -5 50 -31 12 -140 4
-204 -15z"/>
</g>
</svg>
